<svg width="16" height="16" viewBox="0 0 16 16" fill="none" xmlns="http://www.w3.org/2000/svg">
<path d="M13.5129 0.510112C13.7894 0.179306 14.1573 -0.00357696 14.5391 5.30217e-05C14.9208 0.00368301 15.2865 0.193543 15.559 0.529569C15.8315 0.865595 15.9894 1.3215 15.9995 1.8011C16.0096 2.28069 15.871 2.74645 15.6131 3.1001L7.78171 15.4087C7.64705 15.591 7.48452 15.7373 7.30384 15.8388C7.12317 15.9404 6.92805 15.9951 6.73017 15.9997C6.53229 16.0043 6.3357 15.9587 6.15215 15.8656C5.96861 15.7726 5.80188 15.634 5.66194 15.4581L0.468524 8.93128C0.323895 8.76192 0.207893 8.55768 0.127436 8.33075C0.0469793 8.10382 0.00371646 7.85884 0.000229091 7.61044C-0.00325828 7.36204 0.0331013 7.11531 0.107138 6.88495C0.181175 6.65459 0.291372 6.44534 0.431156 6.26967C0.570941 6.09399 0.737448 5.9555 0.920745 5.86246C1.10404 5.76941 1.30037 5.72372 1.49803 5.7281C1.69568 5.73248 1.89061 5.78685 2.07118 5.88797C2.25175 5.98908 2.41427 6.13487 2.54903 6.31663L6.65902 11.4793L13.4756 0.564379C13.4879 0.545388 13.501 0.527271 13.5149 0.510112H13.5129Z" fill="#15BB3A"/>
</svg>
